<mxfile host="app.diagrams.net" modified="2023-05-25T21:21:20.689Z" agent="Mozilla/5.0 (Windows NT 10.0; Win64; x64) AppleWebKit/537.36 (KHTML, like Gecko) Chrome/113.0.0.0 Safari/537.36" etag="Xz6YLB7WUD3l9LSPwi3X" version="21.1.4" type="device">
  <diagram name="Page-1" id="e7e014a7-5840-1c2e-5031-d8a46d1fe8dd">
    <mxGraphModel dx="1434" dy="796" grid="1" gridSize="10" guides="1" tooltips="1" connect="1" arrows="1" fold="1" page="1" pageScale="1" pageWidth="1169" pageHeight="826" background="none" math="0" shadow="0">
      <root>
        <mxCell id="0" />
        <mxCell id="1" parent="0" />
        <mxCell id="2" value="Gardenia" style="swimlane;whiteSpace=wrap" parent="1" vertex="1">
          <mxGeometry x="164.5" y="128" width="280" height="570" as="geometry" />
        </mxCell>
        <mxCell id="5" value="" style="ellipse;shape=startState;fillColor=#000000;strokeColor=#ff0000;" parent="2" vertex="1">
          <mxGeometry x="125" y="40" width="30" height="30" as="geometry" />
        </mxCell>
        <mxCell id="6" value="" style="edgeStyle=elbowEdgeStyle;elbow=horizontal;verticalAlign=bottom;endArrow=open;endSize=8;strokeColor=#000000;endFill=1;rounded=0" parent="2" source="5" target="7" edge="1">
          <mxGeometry x="100" y="40" as="geometry">
            <mxPoint x="115" y="110" as="targetPoint" />
          </mxGeometry>
        </mxCell>
        <mxCell id="7" value="Create Purchase Order" style="" parent="2" vertex="1">
          <mxGeometry x="60" y="110" width="150" height="50" as="geometry" />
        </mxCell>
        <mxCell id="3" value="Supplier" style="swimlane;whiteSpace=wrap" parent="1" vertex="1">
          <mxGeometry x="444.5" y="128" width="280" height="570" as="geometry" />
        </mxCell>
        <mxCell id="13" value="" style="ellipse;shape=startState;fillColor=#000000;strokeColor=#ff0000;" parent="3" vertex="1">
          <mxGeometry x="120" y="40" width="30" height="30" as="geometry" />
        </mxCell>
        <mxCell id="14" value="" style="edgeStyle=elbowEdgeStyle;elbow=horizontal;verticalAlign=bottom;endArrow=open;endSize=8;strokeColor=#000000;endFill=1;rounded=0" parent="3" source="13" target="15" edge="1">
          <mxGeometry x="40" y="20" as="geometry">
            <mxPoint x="55" y="90" as="targetPoint" />
          </mxGeometry>
        </mxCell>
        <mxCell id="15" value="Create Delivery Order" style="" parent="3" vertex="1">
          <mxGeometry x="70" y="110" width="130" height="50" as="geometry" />
        </mxCell>
        <mxCell id="16" value="Make Delivery to Gardenia Warehouse" style="" parent="3" vertex="1">
          <mxGeometry x="30" y="220" width="210" height="50" as="geometry" />
        </mxCell>
        <mxCell id="17" value="" style="endArrow=open;strokeColor=#000000;endFill=1;rounded=0" parent="3" source="15" target="16" edge="1">
          <mxGeometry relative="1" as="geometry" />
        </mxCell>
        <mxCell id="26" value="" style="edgeStyle=elbowEdgeStyle;elbow=horizontal;verticalAlign=bottom;endArrow=open;endSize=8;strokeColor=#FF0000;endFill=1;rounded=0" parent="3" target="15" edge="1">
          <mxGeometry x="130" y="90" as="geometry">
            <mxPoint x="230" y="140" as="targetPoint" />
            <mxPoint x="147.5" y="135" as="sourcePoint" />
          </mxGeometry>
        </mxCell>
        <mxCell id="4" value="Gardenia QA Staff" style="swimlane;whiteSpace=wrap" parent="1" vertex="1">
          <mxGeometry x="724.5" y="128" width="280" height="570" as="geometry" />
        </mxCell>
        <mxCell id="33" value="Approve document&#xa;by signing" style="" parent="4" vertex="1">
          <mxGeometry x="145.5" y="410" width="110" height="50" as="geometry" />
        </mxCell>
        <mxCell id="38" value="" style="ellipse;shape=endState;fillColor=#000000;strokeColor=#ff0000" parent="4" vertex="1">
          <mxGeometry x="130" y="500" width="30" height="30" as="geometry" />
        </mxCell>
        <mxCell id="39" value="" style="endArrow=open;strokeColor=#000000;endFill=1;rounded=0" parent="4" source="33" target="38" edge="1">
          <mxGeometry relative="1" as="geometry" />
        </mxCell>
        <mxCell id="Wpn5yLs_6bqhRM_7ywr3-46" style="edgeStyle=orthogonalEdgeStyle;rounded=0;orthogonalLoop=1;jettySize=auto;html=1;exitX=1;exitY=0.5;exitDx=0;exitDy=0;entryX=1;entryY=0.5;entryDx=0;entryDy=0;" edge="1" parent="4" source="21" target="33">
          <mxGeometry relative="1" as="geometry" />
        </mxCell>
        <mxCell id="Wpn5yLs_6bqhRM_7ywr3-52" style="edgeStyle=orthogonalEdgeStyle;rounded=0;orthogonalLoop=1;jettySize=auto;html=1;exitX=0;exitY=0.5;exitDx=0;exitDy=0;entryX=0.329;entryY=0.02;entryDx=0;entryDy=0;entryPerimeter=0;" edge="1" parent="4" source="21" target="Wpn5yLs_6bqhRM_7ywr3-51">
          <mxGeometry relative="1" as="geometry" />
        </mxCell>
        <mxCell id="21" value="Quantity and Quality&#xa;tallies with Purchase Order" style="rhombus;fillColor=#ffffc0;strokeColor=#ff0000;" parent="4" vertex="1">
          <mxGeometry x="70.63" y="302" width="159.37" height="78" as="geometry" />
        </mxCell>
        <mxCell id="Wpn5yLs_6bqhRM_7ywr3-45" style="edgeStyle=orthogonalEdgeStyle;rounded=0;orthogonalLoop=1;jettySize=auto;html=1;entryX=0.5;entryY=0;entryDx=0;entryDy=0;" edge="1" parent="4" source="Wpn5yLs_6bqhRM_7ywr3-43" target="21">
          <mxGeometry relative="1" as="geometry" />
        </mxCell>
        <mxCell id="Wpn5yLs_6bqhRM_7ywr3-43" value="Count goods and generate &#xa;goods receive document" style="" vertex="1" parent="4">
          <mxGeometry x="75" y="220" width="165" height="50" as="geometry" />
        </mxCell>
        <mxCell id="Wpn5yLs_6bqhRM_7ywr3-51" value="Inform supplier / Send goods back to supplier" style="whiteSpace=wrap;html=1;" vertex="1" parent="4">
          <mxGeometry x="10" y="410" width="120" height="50" as="geometry" />
        </mxCell>
        <mxCell id="Wpn5yLs_6bqhRM_7ywr3-54" value="No" style="text;html=1;align=center;verticalAlign=middle;resizable=0;points=[];autosize=1;strokeColor=none;fillColor=none;" vertex="1" parent="4">
          <mxGeometry x="45.5" y="372" width="40" height="30" as="geometry" />
        </mxCell>
        <mxCell id="Wpn5yLs_6bqhRM_7ywr3-42" style="edgeStyle=orthogonalEdgeStyle;rounded=0;orthogonalLoop=1;jettySize=auto;html=1;exitX=1;exitY=0.5;exitDx=0;exitDy=0;entryX=0;entryY=0.5;entryDx=0;entryDy=0;" edge="1" parent="1" source="7" target="15">
          <mxGeometry relative="1" as="geometry" />
        </mxCell>
        <mxCell id="Wpn5yLs_6bqhRM_7ywr3-44" style="edgeStyle=orthogonalEdgeStyle;rounded=0;orthogonalLoop=1;jettySize=auto;html=1;entryX=0;entryY=0.5;entryDx=0;entryDy=0;" edge="1" parent="1" source="16" target="Wpn5yLs_6bqhRM_7ywr3-43">
          <mxGeometry relative="1" as="geometry" />
        </mxCell>
        <mxCell id="Wpn5yLs_6bqhRM_7ywr3-48" value="Yes" style="text;html=1;align=center;verticalAlign=middle;resizable=0;points=[];autosize=1;strokeColor=none;fillColor=none;" vertex="1" parent="1">
          <mxGeometry x="970" y="505" width="40" height="30" as="geometry" />
        </mxCell>
        <mxCell id="Wpn5yLs_6bqhRM_7ywr3-55" style="edgeStyle=orthogonalEdgeStyle;rounded=0;orthogonalLoop=1;jettySize=auto;html=1;exitX=0;exitY=0.5;exitDx=0;exitDy=0;entryX=0;entryY=0.5;entryDx=0;entryDy=0;" edge="1" parent="1" source="Wpn5yLs_6bqhRM_7ywr3-51" target="5">
          <mxGeometry relative="1" as="geometry">
            <Array as="points">
              <mxPoint x="200" y="563" />
              <mxPoint x="200" y="183" />
            </Array>
          </mxGeometry>
        </mxCell>
      </root>
    </mxGraphModel>
  </diagram>
</mxfile>
